<?xml version="1.0" encoding="iso-8859-1"?>
<!-- Generator: Adobe Illustrator 19.0.0, SVG Export Plug-In . SVG Version: 6.00 Build 0)  -->
<svg version="1.1" id="Layer_1" xmlns="http://www.w3.org/2000/svg" xmlns:xlink="http://www.w3.org/1999/xlink" x="0px" y="0px"
	 viewBox="0 0 297 297" style="enable-background:new 0 0 297 297;" xml:space="preserve">
<g>
	<g>
		<g>
			<circle style="fill:#C0392B;" cx="148.5" cy="148.5" r="148.5"/>
		</g>
	</g>
	<path style="fill:#9E231D;" d="M247.5,148.5L89.119,227.721l68.137,69.015c63.152-3.673,115.705-46.803,133.374-105.106
		L247.5,148.5z"/>
	<g>
		<circle style="fill:#E67E22;" cx="145.406" cy="137.24" r="36.094"/>
		<path style="fill:#F4AF30;" d="M145.406,177.333c-22.107,0-40.094-17.986-40.094-40.094s17.986-40.094,40.094-40.094
			s40.094,17.986,40.094,40.094S167.514,177.333,145.406,177.333z M145.406,105.146c-17.696,0-32.094,14.397-32.094,32.094
			s14.397,32.094,32.094,32.094S177.5,154.937,177.5,137.24S163.103,105.146,145.406,105.146z"/>
	</g>
	<g>
		<circle style="fill:#E67E22;" cx="145.406" cy="137.24" r="18.047"/>
		<path style="fill:#F4AF30;" d="M145.406,159.286c-12.156,0-22.047-9.891-22.047-22.047s9.891-22.047,22.047-22.047
			s22.047,9.891,22.047,22.047S157.563,159.286,145.406,159.286z M145.406,123.192c-7.745,0-14.047,6.302-14.047,14.047
			s6.302,14.047,14.047,14.047s14.047-6.302,14.047-14.047S153.151,123.192,145.406,123.192z"/>
	</g>
	<g>
		<path style="fill:#C46116;" d="M145.406,101.146c-0.08,0-0.159,0.006-0.239,0.006v72.175c0.08,0.001,0.159,0.006,0.239,0.006
			c19.934,0,36.094-16.16,36.094-36.094C181.5,117.306,165.34,101.146,145.406,101.146z"/>
		<path style="fill:#D89221;" d="M145.406,97.146c-0.08,0-0.159,0.006-0.239,0.006v8c0.08-0.001,0.159-0.006,0.239-0.006
			c17.696,0,32.094,14.397,32.094,32.094s-14.397,32.094-32.094,32.094c-0.08,0-0.159-0.005-0.239-0.006v8
			c0.08,0,0.159,0.006,0.239,0.006c22.107,0,40.094-17.986,40.094-40.094S167.514,97.146,145.406,97.146z"/>
	</g>
	<g>
		<path style="fill:#C46116;" d="M145.406,119.193c-0.081,0-0.159,0.011-0.239,0.012v36.07c0.081,0.001,0.158,0.012,0.239,0.012
			c9.967,0,18.047-8.08,18.047-18.047S155.373,119.193,145.406,119.193z"/>
		<path style="fill:#D89221;" d="M145.406,115.192c-0.08,0-0.159,0.005-0.239,0.006v8.006c0.08-0.001,0.158-0.012,0.239-0.012
			c7.745,0,14.047,6.302,14.047,14.047s-6.302,14.047-14.047,14.047c-0.081,0-0.159-0.011-0.239-0.012v8.006
			c0.08,0.001,0.159,0.006,0.239,0.006c12.156,0,22.047-9.891,22.047-22.047S157.563,115.192,145.406,115.192z"/>
	</g>
	<g>
		<circle style="fill:#E67E22;" cx="99" cy="148.5" r="33"/>
		<path style="fill:#F4AF30;" d="M99,185.5c-20.402,0-37-16.598-37-37s16.598-37,37-37s37,16.598,37,37S119.402,185.5,99,185.5z
			 M99,119.5c-15.99,0-29,13.01-29,29s13.01,29,29,29s29-13.01,29-29S114.99,119.5,99,119.5z"/>
	</g>
	<g>
		<circle style="fill:#E67E22;" cx="99" cy="148.5" r="16.5"/>
		<path style="fill:#F4AF30;" d="M99,169c-11.304,0-20.5-9.196-20.5-20.5S87.696,128,99,128s20.5,9.196,20.5,20.5
			S110.304,169,99,169z M99,136c-6.893,0-12.5,5.607-12.5,12.5S92.107,161,99,161s12.5-5.607,12.5-12.5S105.893,136,99,136z"/>
	</g>
	<g>
		<circle style="fill:#E67E22;" cx="189.75" cy="156.75" r="41.25"/>
		<path style="fill:#F4AF30;" d="M189.75,202c-24.951,0-45.25-20.299-45.25-45.25s20.299-45.25,45.25-45.25S235,131.799,235,156.75
			S214.701,202,189.75,202z M189.75,119.5c-20.54,0-37.25,16.71-37.25,37.25S169.21,194,189.75,194S227,177.29,227,156.75
			S210.29,119.5,189.75,119.5z"/>
	</g>
	<g>
		<circle style="fill:#E67E22;" cx="189.75" cy="156.75" r="25"/>
		<path style="fill:#F4AF30;" d="M189.75,185.75c-15.99,0-29-13.01-29-29s13.01-29,29-29s29,13.01,29,29
			S205.74,185.75,189.75,185.75z M189.75,135.75c-11.579,0-21,9.421-21,21s9.421,21,21,21s21-9.421,21-21
			S201.329,135.75,189.75,135.75z"/>
	</g>
	<g>
		<circle style="fill:#E67E22;" cx="189.75" cy="156.75" r="8.25"/>
		<path style="fill:#F4AF30;" d="M189.75,169c-6.755,0-12.25-5.495-12.25-12.25s5.495-12.25,12.25-12.25S202,149.995,202,156.75
			S196.505,169,189.75,169z M189.75,152.5c-2.344,0-4.25,1.906-4.25,4.25s1.906,4.25,4.25,4.25s4.25-1.906,4.25-4.25
			S192.094,152.5,189.75,152.5z"/>
	</g>
	<g>
		<path style="fill:#F0DEB4;" d="M247.5,148.5c0,54.676-44.324,99-99,99s-99-44.324-99-99H247.5z"/>
	</g>
	<g>
		<path style="fill:#D5C295;" d="M145.167,148.5v98.938c1.107,0.037,2.217,0.062,3.333,0.062c54.676,0,99-44.324,99-99H145.167z"/>
	</g>
	<g>
		<path style="fill:#F4AF30;" d="M198,119.5c-2.209,0-4-1.791-4-4v-66c0-2.209,1.791-4,4-4s4,1.791,4,4v66
			C202,117.709,200.209,119.5,198,119.5z"/>
	</g>
	<g>
		<path style="fill:#F4AF30;" d="M181.5,136c-2.209,0-4-1.791-4-4V66c0-2.209,1.791-4,4-4s4,1.791,4,4v66
			C185.5,134.209,183.709,136,181.5,136z"/>
	</g>
	<g>
		<path style="fill:#D5C295;" d="M198,71H66c-2.762,0-5-2.238-5-5s2.238-5,5-5h132c2.762,0,5,2.238,5,5S200.762,71,198,71z"/>
	</g>
	<g>
		<path style="fill:#D5C295;" d="M214.5,54.5h-132c-2.762,0-5-2.238-5-5s2.238-5,5-5h132c2.762,0,5,2.238,5,5
			S217.262,54.5,214.5,54.5z"/>
	</g>
	<g>
		<path style="fill:#BCA77E;" d="M198,61h-49.833v10H198c2.762,0,5-2.238,5-5S200.762,61,198,61z"/>
	</g>
	<g>
		<path style="fill:#BCA77E;" d="M214.5,44.5h-66.333v10H214.5c2.762,0,5-2.238,5-5S217.262,44.5,214.5,44.5z"/>
	</g>
</g>
<g>
</g>
<g>
</g>
<g>
</g>
<g>
</g>
<g>
</g>
<g>
</g>
<g>
</g>
<g>
</g>
<g>
</g>
<g>
</g>
<g>
</g>
<g>
</g>
<g>
</g>
<g>
</g>
<g>
</g>
</svg>
