<?xml version="1.0" encoding="iso-8859-1"?>
<!-- Generator: Adobe Illustrator 19.0.0, SVG Export Plug-In . SVG Version: 6.00 Build 0)  -->
<svg version="1.1" id="Layer_1" xmlns="http://www.w3.org/2000/svg" xmlns:xlink="http://www.w3.org/1999/xlink" x="0px" y="0px"
	 viewBox="0 0 297 297" style="enable-background:new 0 0 297 297;" xml:space="preserve">
<g>
	<g>
		<g>
			<circle style="fill:#AE9676;" cx="148.5" cy="148.5" r="148.5"/>
		</g>
	</g>
	<path style="fill:#897256;" d="M205.045,57.094L88.283,240.872l56.07,56.067c1.378,0.038,2.76,0.061,4.147,0.061
		c81.833,0,148.2-66.193,148.493-147.958L205.045,57.094z"/>
	<g>
		<path style="fill:#5E4534;" d="M103.667,247.5h89.666c11.69,0,21.167-9.477,21.167-21.167V103.667
			c0-11.69-9.477-21.167-21.167-21.167h-89.666c-11.69,0-21.167,9.477-21.167,21.167v122.666
			C82.5,238.023,91.977,247.5,103.667,247.5z"/>
	</g>
	<g>
		<path style="fill:#503B2C;" d="M193.333,82.5h-45.5v165h45.5c11.69,0,21.167-9.477,21.167-21.167V103.667
			C214.5,91.977,205.023,82.5,193.333,82.5z"/>
	</g>
	<g>
		<path style="fill:#ECF0F1;" d="M96.505,84h103.99c3.317,0,6.005-2.689,6.005-6.005v-16.99c0-3.317-2.689-6.005-6.005-6.005H96.505
			c-3.317,0-6.005,2.689-6.005,6.005v16.99C90.5,81.311,93.189,84,96.505,84z"/>
	</g>
	<g>
		<path style="fill:#ECF0F1;" d="M190.833,198h-84.667c-3.958,0-7.166-3.209-7.166-7.167v-51.667c0-3.958,3.209-7.167,7.166-7.167
			h84.667c3.958,0,7.167,3.209,7.167,7.167v51.667C198,194.791,194.791,198,190.833,198z"/>
	</g>
	<g>
		<path style="fill:#D6D8D8;" d="M200.495,55h-52.661v29h52.661c3.317,0,6.005-2.689,6.005-6.005v-16.99
			C206.5,57.689,203.811,55,200.495,55z"/>
	</g>
	<g>
		<path style="fill:#D6D8D8;" d="M190.833,132h-43v66h43c3.958,0,7.167-3.208,7.167-7.167v-51.667
			C198,135.208,194.791,132,190.833,132z"/>
	</g>
	<g>
		<path style="fill:#C63C22;" d="M122.666,181.5h51.667c3.958,0,7.167-3.209,7.167-7.167v-18.667c0-3.958-3.209-7.167-7.167-7.167
			h-51.667c-3.958,0-7.166,3.209-7.166,7.167v18.667C115.5,178.291,118.709,181.5,122.666,181.5z"/>
	</g>
	<g>
		<path style="fill:#AF3120;" d="M174.333,148.5h-26.5v33h26.5c3.958,0,7.167-3.208,7.167-7.167v-18.667
			C181.5,151.708,178.291,148.5,174.333,148.5z"/>
	</g>
</g>
<g>
</g>
<g>
</g>
<g>
</g>
<g>
</g>
<g>
</g>
<g>
</g>
<g>
</g>
<g>
</g>
<g>
</g>
<g>
</g>
<g>
</g>
<g>
</g>
<g>
</g>
<g>
</g>
<g>
</g>
</svg>
