<?xml version="1.0" encoding="iso-8859-1"?>
<!-- Generator: Adobe Illustrator 19.0.0, SVG Export Plug-In . SVG Version: 6.00 Build 0)  -->
<svg version="1.1" id="Layer_1" xmlns="http://www.w3.org/2000/svg" xmlns:xlink="http://www.w3.org/1999/xlink" x="0px" y="0px"
	 viewBox="0 0 297.001 297.001" style="enable-background:new 0 0 297.001 297.001;" xml:space="preserve">
<g>
	<g>
		<g>
			<circle style="fill:#17AB93;" cx="148.501" cy="148.5" r="148.5"/>
		</g>
	</g>
	<path style="fill:#0D725F;" d="M180.019,64.418c-1.752,32.875-3.428,64.979-13.518,97.082c-8,24-2,52-13,71c-8,13-26,22-34,38
		c-0.06,0.105-0.131-0.053-0.193,0.051l26.153,26.411c1.012,0.021,2.024,0.039,3.04,0.039c71.776,0,131.657-50.922,145.49-118.609
		L180.019,64.418z"/>
	<g>
		<path style="fill:#ECF0F1;" d="M209.001,135.929c0,38.187-27.087,69.143-60.5,69.143s-60.5-30.957-60.5-69.143
			s27.087-86.429,60.5-86.429S209.001,97.742,209.001,135.929z"/>
	</g>
	<g>
		<path style="fill:#D9DBDB;" d="M148.501,49.5c-0.334,0-0.667,0.013-1,0.022v155.52c0.334,0.006,0.664,0.029,1,0.029
			c33.413,0,60.5-30.956,60.5-69.143C209.001,97.742,181.913,49.5,148.501,49.5z"/>
	</g>
	<g>
		<path style="fill:#314B5A;" d="M210.001,154.286h-123c0,30.782,18.452,68.192,43.777,80.755
			c-4.845,4.175-13.401,21.018-15.075,27.752c-1.074,4.321,2.259,8.493,6.712,8.493h52.171c4.453,0,7.786-4.172,6.712-8.493
			c-1.673-6.734-10.23-23.577-15.075-27.752C191.549,222.478,210.001,185.068,210.001,154.286z"/>
	</g>
	<g>
		<path style="fill:#263A44;" d="M210.001,154.286h-62.5v117h27.085c4.453,0,7.786-4.171,6.712-8.493
			c-1.673-6.734-10.23-23.577-15.075-27.752C191.549,222.478,210.001,185.068,210.001,154.286z"/>
	</g>
	<g>
		<path style="fill:#BFF796;" d="M211.251,161.536h-125.5c-4.556,0-8.25-3.694-8.25-8.25l0,0c0-4.556,3.694-8.25,8.25-8.25h125.5
			c4.556,0,8.25,3.694,8.25,8.25l0,0C219.501,157.842,215.807,161.536,211.251,161.536z"/>
	</g>
	<g>
		<path style="fill:#A7DB7D;" d="M211.251,145.036h-63.75v16.5h63.75c4.556,0,8.25-3.694,8.25-8.25
			C219.501,148.729,215.807,145.036,211.251,145.036z"/>
	</g>
</g>
<g>
</g>
<g>
</g>
<g>
</g>
<g>
</g>
<g>
</g>
<g>
</g>
<g>
</g>
<g>
</g>
<g>
</g>
<g>
</g>
<g>
</g>
<g>
</g>
<g>
</g>
<g>
</g>
<g>
</g>
</svg>
