<?xml version="1.0" encoding="iso-8859-1"?>
<!-- Generator: Adobe Illustrator 19.0.0, SVG Export Plug-In . SVG Version: 6.00 Build 0)  -->
<svg version="1.1" id="Layer_1" xmlns="http://www.w3.org/2000/svg" xmlns:xlink="http://www.w3.org/1999/xlink" x="0px" y="0px"
	 viewBox="0 0 297 297" style="enable-background:new 0 0 297 297;" xml:space="preserve">
<g>
	<g>
		<g>
			<circle style="fill:#E67E22;" cx="148.5" cy="148.5" r="148.5"/>
		</g>
	</g>
	<path style="fill:#AD481C;" d="M295.964,130.964L234.11,69.187L73.51,238.318l57.671,57.671c5.683,0.66,11.46,1.011,17.319,1.011
		c82.014,0,148.5-66.486,148.5-148.5C297,142.566,296.641,136.716,295.964,130.964z"/>
	<g>
		<path style="fill:#F0DEB4;" d="M100.832,210.996l40.984-40.983l-13.661-13.661l-40.983,40.983c-7.545-7.545-19.777-7.545-27.322,0
			s-7.545,19.777,0,27.322c2.491,2.491,5.497,4.142,8.673,4.988c0.846,3.176,2.497,6.182,4.988,8.673
			c7.545,7.545,19.777,7.545,27.322,0C108.377,230.774,108.377,218.541,100.832,210.996z"/>
	</g>
	<g>
		<path style="fill:#79302A;" d="M162.308,53.894C184.943,31.26,208.366,43.366,231,66s35.909,47.226,13.274,69.861
			s-100.316,63.617-122.95,40.983S139.674,76.529,162.308,53.894z"/>
	</g>
	<g>
		<path style="fill:#68231F;" d="M231,66c-22.634-22.634-46.057-34.74-68.692-12.106c-4.531,4.531-9.797,11.271-15.141,19.331
			v109.918c32.453-3.161,80.177-30.353,97.107-47.283C266.909,113.226,253.634,88.634,231,66z"/>
	</g>
</g>
<g>
</g>
<g>
</g>
<g>
</g>
<g>
</g>
<g>
</g>
<g>
</g>
<g>
</g>
<g>
</g>
<g>
</g>
<g>
</g>
<g>
</g>
<g>
</g>
<g>
</g>
<g>
</g>
<g>
</g>
</svg>
